<svg width="45" height="36" viewBox="0 0 45 36" fill="none" xmlns="http://www.w3.org/2000/svg">
<path fill-rule="evenodd" clip-rule="evenodd" d="M38.7549 11.5526H16.206C15.2676 11.5527 14.3413 11.7086 13.4958 12.0089C12.6504 12.3092 11.9077 12.7461 11.3227 13.2872C10.7378 13.8282 10.3257 14.4595 10.1171 15.1341C9.90848 15.8088 9.90873 16.5094 10.1178 17.1839L12.3987 24.5523C12.7139 25.5695 13.4882 26.4775 14.5947 27.1277C15.7012 27.778 17.0744 28.1319 18.4893 28.1316H36.474C37.8885 28.1315 39.2611 27.7774 40.3671 27.1272C41.4731 26.4769 42.247 25.5691 42.5622 24.5523L44.843 17.1839C45.0521 16.5094 45.0523 15.8088 44.8437 15.1341C44.6351 14.4595 44.2231 13.8282 43.6381 13.2872C43.0532 12.7461 42.3104 12.3092 41.465 12.0089C40.6196 11.7086 39.6933 11.5527 38.7549 11.5526ZM15.9287 15.2608C16.0196 15.2452 16.1126 15.2371 16.206 15.2368H38.7549C38.9424 15.237 39.1274 15.2682 39.2963 15.3283C39.4651 15.3884 39.6135 15.4757 39.7304 15.5838C39.8472 15.6919 39.9296 15.818 39.9713 15.9528C40.0131 16.0876 40.0131 16.2276 39.9715 16.3623L37.6906 23.7308C37.6278 23.9341 37.4733 24.1158 37.2523 24.246C37.0313 24.3761 36.7569 24.4471 36.474 24.4473H18.4868C18.204 24.4471 17.9296 24.3761 17.7086 24.246C17.4875 24.1158 17.333 23.9341 17.2702 23.7308L14.9893 16.3623C14.9161 16.1244 14.9739 15.8748 15.15 15.6683C15.3261 15.4618 15.6062 15.3152 15.9287 15.2608Z" fill="#EFEFEF"/>
<path d="M6.22056 4.18421H2.49822C1.83565 4.18421 1.20022 3.99013 0.731711 3.64467C0.263204 3.29921 0 2.83066 0 2.34211C0 1.85355 0.263204 1.385 0.731711 1.03954C1.20022 0.694078 1.83565 0.5 2.49822 0.5L8.21914 0.5C8.78598 0.500209 9.33588 0.642556 9.77851 0.903663C10.2211 1.16477 10.5302 1.52911 10.6549 1.93684L17.4251 24.0421C17.5089 24.281 17.5268 24.5299 17.4776 24.7739C17.4285 25.018 17.3134 25.2523 17.1391 25.463C16.9648 25.6736 16.7348 25.8563 16.463 26.0001C16.1911 26.144 15.8828 26.2461 15.5564 26.3004C15.2299 26.3547 14.892 26.3601 14.5627 26.3163C14.2334 26.2725 13.9194 26.1803 13.6393 26.0452C13.3592 25.9102 13.1188 25.7351 12.9323 25.5302C12.7458 25.3253 12.617 25.0949 12.5535 24.8526L6.22056 4.18421ZM22.484 32.2763C22.484 32.6997 22.3709 33.1189 22.1512 33.51C21.9315 33.9011 21.6094 34.2565 21.2035 34.5558C20.7975 34.8552 20.3155 35.0926 19.7851 35.2546C19.2547 35.4166 18.6862 35.5 18.1121 35.5C17.538 35.5 16.9695 35.4166 16.439 35.2546C15.9086 35.0926 15.4267 34.8552 15.0207 34.5558C14.6147 34.2565 14.2927 33.9011 14.073 33.51C13.8533 33.1189 13.7402 32.6997 13.7402 32.2763C13.7402 31.4213 14.2008 30.6014 15.0207 29.9968C15.8406 29.3923 16.9526 29.0526 18.1121 29.0526C19.2716 29.0526 20.3836 29.3923 21.2035 29.9968C22.0234 30.6014 22.484 31.4213 22.484 32.2763ZM39.9715 32.2763C39.9715 33.1313 39.5109 33.9512 38.691 34.5558C37.8711 35.1604 36.7591 35.5 35.5996 35.5C34.4401 35.5 33.3281 35.1604 32.5082 34.5558C31.6883 33.9512 31.2277 33.1313 31.2277 32.2763C31.2277 31.4213 31.6883 30.6014 32.5082 29.9968C33.3281 29.3923 34.4401 29.0526 35.5996 29.0526C36.7591 29.0526 37.8711 29.3923 38.691 29.9968C39.5109 30.6014 39.9715 31.4213 39.9715 32.2763Z" fill="#EFEFEF"/>
</svg>
