<svg width="46" height="36" viewBox="0 0 46 36" fill="none" xmlns="http://www.w3.org/2000/svg">
<path fill-rule="evenodd" clip-rule="evenodd" d="M38.7745 11.7521H16.2256C15.2872 11.7521 14.3609 11.9081 13.5155 12.2084C12.6701 12.5087 11.9273 12.9456 11.3424 13.4866C10.7574 14.0277 10.3453 14.659 10.1367 15.3336C9.92814 16.0082 9.92838 16.7088 10.1375 17.3834L12.4183 24.7518C12.7336 25.7689 13.5079 26.6769 14.6144 27.3272C15.7209 27.9774 17.094 28.3314 18.509 28.331H36.4937C37.9082 28.331 39.2807 27.9768 40.3867 27.3266C41.4927 26.6764 42.2667 25.7686 42.5818 24.7518L44.8627 17.3834C45.0718 16.7088 45.072 16.0082 44.8634 15.3336C44.6548 14.659 44.2427 14.0277 43.6578 13.4866C43.0728 12.9456 42.33 12.5087 41.4846 12.2084C40.6392 11.9081 39.7129 11.7521 38.7745 11.7521ZM15.9483 15.4602C16.0392 15.4446 16.1323 15.4366 16.2256 15.4363H38.7745C38.962 15.4364 39.1471 15.4677 39.3159 15.5278C39.4848 15.5878 39.6332 15.6751 39.75 15.7833C39.8669 15.8914 39.9492 16.0175 39.991 16.1523C40.0327 16.287 40.0328 16.427 39.9912 16.5618L37.7103 23.9302C37.6475 24.1336 37.4929 24.3152 37.2719 24.4454C37.0509 24.5756 36.7765 24.6466 36.4937 24.6468H18.5065C18.2236 24.6466 17.9492 24.5756 17.7282 24.4454C17.5072 24.3152 17.3526 24.1336 17.2899 23.9302L15.009 16.5618C14.9358 16.3239 14.9936 16.0743 15.1697 15.8678C15.3458 15.6613 15.6258 15.5147 15.9483 15.4602Z" fill="#EFEFEF"/>
<path d="M6.24034 4.38367H2.51799C1.85542 4.38367 1.21999 4.1896 0.751486 3.84413C0.28298 3.49867 0.0197754 3.03012 0.0197754 2.54157C0.0197754 2.05301 0.28298 1.58446 0.751486 1.239C1.21999 0.893541 1.85542 0.699463 2.51799 0.699463L8.23891 0.699463C8.80576 0.699672 9.35565 0.842019 9.79829 1.10313C10.2409 1.36423 10.55 1.72857 10.6747 2.1363L17.4448 24.2416C17.5287 24.4805 17.5465 24.7293 17.4974 24.9734C17.4483 25.2175 17.3331 25.4518 17.1588 25.6624C16.9845 25.8731 16.7546 26.0557 16.4827 26.1996C16.2109 26.3434 15.9026 26.4456 15.5761 26.4999C15.2497 26.5542 14.9118 26.5596 14.5825 26.5158C14.2532 26.4719 13.9392 26.3797 13.6591 26.2447C13.379 26.1097 13.1386 25.9345 12.9521 25.7297C12.7655 25.5248 12.6367 25.2944 12.5733 25.0521L6.24034 4.38367ZM22.5037 32.4758C22.5037 32.8991 22.3907 33.3183 22.1709 33.7094C21.9512 34.1005 21.6292 34.4559 21.2232 34.7553C20.8173 35.0546 20.3353 35.2921 19.8049 35.4541C19.2745 35.6161 18.706 35.6995 18.1319 35.6995C17.5577 35.6995 16.9892 35.6161 16.4588 35.4541C15.9284 35.2921 15.4464 35.0546 15.0405 34.7553C14.6345 34.4559 14.3125 34.1005 14.0928 33.7094C13.8731 33.3183 13.76 32.8991 13.76 32.4758C13.76 31.6208 14.2206 30.8008 15.0405 30.1963C15.8604 29.5917 16.9724 29.2521 18.1319 29.2521C19.2913 29.2521 20.4034 29.5917 21.2232 30.1963C22.0431 30.8008 22.5037 31.6208 22.5037 32.4758ZM39.9913 32.4758C39.9913 33.3308 39.5307 34.1507 38.7108 34.7553C37.8909 35.3598 36.7789 35.6995 35.6194 35.6995C34.4599 35.6995 33.3479 35.3598 32.528 34.7553C31.7081 34.1507 31.2475 33.3308 31.2475 32.4758C31.2475 31.6208 31.7081 30.8008 32.528 30.1963C33.3479 29.5917 34.4599 29.2521 35.6194 29.2521C36.7789 29.2521 37.8909 29.5917 38.7108 30.1963C39.5307 30.8008 39.9913 31.6208 39.9913 32.4758Z" fill="#EFEFEF"/>
</svg>
