<svg width="36" height="34" viewBox="0 0 36 34" fill="none" xmlns="http://www.w3.org/2000/svg">
<ellipse cx="17.76" cy="16.595" rx="17.76" ry="16.595" fill="#FFFCFC"/>
<path d="M28.3314 19.5706H29.3314V18.5706V14.6194V13.6194H28.3314H7.18857H6.18857V14.6194V18.5706V19.5706H7.18857H28.3314ZM5.88452 5.59123C9.02324 2.6584 13.2939 1 17.76 1C22.2261 1 26.4968 2.6584 29.6355 5.59123C32.7719 8.52191 34.52 12.4817 34.52 16.595C34.52 20.7083 32.7719 24.6681 29.6355 27.5988C26.4968 30.5316 22.2261 32.19 17.76 32.19C13.2939 32.19 9.02324 30.5316 5.88452 27.5988C2.7481 24.6681 1 20.7083 1 16.595C1 12.4817 2.7481 8.52191 5.88452 5.59123Z" fill="#9E0101" stroke="#FFFEFE" stroke-width="2"/>
</svg>
