<svg width="46" height="36" viewBox="0 0 46 36" fill="none" xmlns="http://www.w3.org/2000/svg">
<path fill-rule="evenodd" clip-rule="evenodd" d="M39.6722 11.7629H16.8901C15.942 11.763 15.0061 11.9206 14.152 12.224C13.2978 12.5274 12.5474 12.9688 11.9564 13.5154C11.3654 14.0621 10.949 14.6999 10.7383 15.3815C10.5275 16.0631 10.5278 16.771 10.739 17.4525L13.0435 24.8971C13.362 25.9247 14.1443 26.8421 15.2622 27.4991C16.3802 28.1561 17.7675 28.5137 19.1971 28.5133H37.3677C38.7968 28.5132 40.1836 28.1555 41.3011 27.4985C42.4185 26.8416 43.2004 25.9244 43.5188 24.8971L45.8233 17.4525C46.0345 16.771 46.0348 16.0631 45.824 15.3815C45.6132 14.6999 45.1969 14.0621 44.6059 13.5154C44.0149 12.9688 43.2645 12.5274 42.4103 12.224C41.5561 11.9206 40.6203 11.763 39.6722 11.7629ZM16.6099 15.5094C16.7018 15.4937 16.7958 15.4856 16.8901 15.4852H39.6722C39.8616 15.4854 40.0485 15.517 40.2192 15.5777C40.3898 15.6383 40.5397 15.7266 40.6577 15.8358C40.7758 15.945 40.859 16.0724 40.9012 16.2086C40.9434 16.3448 40.9434 16.4862 40.9014 16.6224L38.5969 24.067C38.5335 24.2725 38.3773 24.456 38.154 24.5875C37.9307 24.719 37.6535 24.7908 37.3677 24.791H19.1946C18.9088 24.7908 18.6315 24.719 18.4083 24.5875C18.185 24.456 18.0288 24.2725 17.9654 24.067L15.6609 16.6224C15.587 16.382 15.6453 16.1299 15.8233 15.9212C16.0012 15.7125 16.2841 15.5645 16.6099 15.5094Z" fill="#EFEFEF"/>
<path d="M6.80154 4.31825H3.04071C2.37129 4.31825 1.72929 4.12216 1.25594 3.77313C0.782588 3.4241 0.516663 2.95071 0.516663 2.4571C0.516663 1.96349 0.782588 1.4901 1.25594 1.14107C1.72929 0.792032 2.37129 0.595947 3.04071 0.595947L8.82078 0.595947C9.39349 0.596158 9.94907 0.739978 10.3963 1.00378C10.8435 1.26759 11.1557 1.6357 11.2817 2.04765L18.1219 24.3815C18.2066 24.6228 18.2246 24.8743 18.175 25.1209C18.1254 25.3675 18.009 25.6042 17.8329 25.817C17.6568 26.0298 17.4245 26.2144 17.1498 26.3597C16.8752 26.5051 16.5637 26.6082 16.2339 26.6631C15.9041 26.718 15.5627 26.7234 15.2299 26.6792C14.8972 26.6349 14.58 26.5417 14.297 26.4053C14.014 26.2689 13.7711 26.0919 13.5827 25.8849C13.3942 25.6779 13.2641 25.4451 13.2 25.2004L6.80154 4.31825ZM23.2331 32.7008C23.2331 33.1285 23.1188 33.5521 22.8969 33.9472C22.6749 34.3424 22.3495 34.7014 21.9394 35.0039C21.5292 35.3063 21.0423 35.5462 20.5064 35.7099C19.9704 35.8736 19.3961 35.9578 18.816 35.9578C18.2359 35.9578 17.6616 35.8736 17.1257 35.7099C16.5898 35.5462 16.1028 35.3063 15.6927 35.0039C15.2825 34.7014 14.9571 34.3424 14.7352 33.9472C14.5132 33.5521 14.3989 33.1285 14.3989 32.7008C14.3989 31.837 14.8643 31.0086 15.6927 30.3977C16.521 29.7869 17.6445 29.4438 18.816 29.4438C19.9875 29.4438 21.111 29.7869 21.9394 30.3977C22.7677 31.0086 23.2331 31.837 23.2331 32.7008ZM40.9014 32.7008C40.9014 33.5646 40.4361 34.3931 39.6077 35.0039C38.7793 35.6147 37.6558 35.9578 36.4843 35.9578C35.3129 35.9578 34.1894 35.6147 33.361 35.0039C32.5326 34.3931 32.0673 33.5646 32.0673 32.7008C32.0673 31.837 32.5326 31.0086 33.361 30.3977C34.1894 29.7869 35.3129 29.4438 36.4843 29.4438C37.6558 29.4438 38.7793 29.7869 39.6077 30.3977C40.4361 31.0086 40.9014 31.837 40.9014 32.7008Z" fill="#EFEFEF"/>
</svg>
