<svg width="46" height="36" viewBox="0 0 46 36" fill="none" xmlns="http://www.w3.org/2000/svg">
<path fill-rule="evenodd" clip-rule="evenodd" d="M39.0646 11.5527H16.5157C15.5773 11.5527 14.6509 11.7087 13.8055 12.009C12.9601 12.3093 12.2174 12.7462 11.6324 13.2872C11.0475 13.8283 10.6354 14.4596 10.4268 15.1342C10.2182 15.8088 10.2184 16.5094 10.4275 17.184L12.7084 24.5524C13.0236 25.5695 13.7979 26.4775 14.9044 27.1278C16.0109 27.778 17.3841 28.132 18.799 28.1316H36.7837C38.1982 28.1316 39.5708 27.7774 40.6768 27.1272C41.7828 26.477 42.5567 25.5692 42.8718 24.5524L45.1527 17.184C45.3618 16.5094 45.362 15.8088 45.1534 15.1342C44.9448 14.4596 44.5328 13.8283 43.9478 13.2872C43.3629 12.7462 42.6201 12.3093 41.7747 12.009C40.9293 11.7087 40.003 11.5527 39.0646 11.5527ZM16.2383 15.2608C16.3293 15.2452 16.4223 15.2372 16.5157 15.2369H39.0646C39.2521 15.237 39.4371 15.2683 39.606 15.3284C39.7748 15.3884 39.9232 15.4757 40.0401 15.5839C40.1569 15.692 40.2393 15.8181 40.281 15.9529C40.3228 16.0876 40.3228 16.2276 40.2812 16.3624L38.0003 23.7308C37.9375 23.9342 37.783 24.1158 37.562 24.246C37.3409 24.3762 37.0666 24.4472 36.7837 24.4474H18.7965C18.5137 24.4472 18.2393 24.3762 18.0183 24.246C17.7972 24.1158 17.6427 23.9342 17.5799 23.7308L15.299 16.3624C15.2258 16.1245 15.2836 15.8749 15.4597 15.6684C15.6358 15.4619 15.9159 15.3153 16.2383 15.2608Z" fill="#EFEFEF"/>
<path d="M6.53013 4.18421H2.80779C2.14522 4.18421 1.50979 3.99013 1.04128 3.64467C0.572775 3.29921 0.30957 2.83066 0.30957 2.34211C0.30957 1.85355 0.572775 1.385 1.04128 1.03954C1.50979 0.694078 2.14522 0.5 2.80779 0.5L8.52871 0.5C9.09555 0.500209 9.64545 0.642556 10.0881 0.903663C10.5307 1.16477 10.8398 1.52911 10.9645 1.93684L17.7346 24.0421C17.8185 24.281 17.8363 24.5299 17.7872 24.7739C17.7381 25.018 17.6229 25.2523 17.4486 25.463C17.2743 25.6736 17.0444 25.8563 16.7725 26.0001C16.5007 26.144 16.1924 26.2461 15.8659 26.3004C15.5395 26.3547 15.2016 26.3601 14.8723 26.3163C14.543 26.2725 14.2289 26.1803 13.9489 26.0452C13.6688 25.9102 13.4284 25.7351 13.2418 25.5302C13.0553 25.3253 12.9265 25.0949 12.8631 24.8526L6.53013 4.18421ZM22.7935 32.2763C22.7935 32.6997 22.6804 33.1189 22.4607 33.51C22.241 33.9011 21.919 34.2565 21.513 34.5558C21.1071 34.8552 20.6251 35.0926 20.0947 35.2546C19.5643 35.4166 18.9958 35.5 18.4216 35.5C17.8475 35.5 17.279 35.4166 16.7486 35.2546C16.2182 35.0926 15.7362 34.8552 15.3303 34.5558C14.9243 34.2565 14.6023 33.9011 14.3826 33.51C14.1629 33.1189 14.0498 32.6997 14.0498 32.2763C14.0498 31.4213 14.5104 30.6014 15.3303 29.9968C16.1501 29.3923 17.2622 29.0526 18.4216 29.0526C19.5811 29.0526 20.6932 29.3923 21.513 29.9968C22.3329 30.6014 22.7935 31.4213 22.7935 32.2763ZM40.2811 32.2763C40.2811 33.1313 39.8204 33.9512 39.0006 34.5558C38.1807 35.1604 37.0687 35.5 35.9092 35.5C34.7497 35.5 33.6377 35.1604 32.8178 34.5558C31.9979 33.9512 31.5373 33.1313 31.5373 32.2763C31.5373 31.4213 31.9979 30.6014 32.8178 29.9968C33.6377 29.3923 34.7497 29.0526 35.9092 29.0526C37.0687 29.0526 38.1807 29.3923 39.0006 29.9968C39.8204 30.6014 40.2811 31.4213 40.2811 32.2763Z" fill="#EFEFEF"/>
</svg>
