<svg width="116" height="26" viewBox="0 0 116 26" fill="none" xmlns="http://www.w3.org/2000/svg">
<path d="M0.0825195 25.5621V0.750634H8.68337C10.672 0.750634 12.3043 1.08178 13.5804 1.74406C14.8564 2.39827 15.801 3.29882 16.4142 4.4457C17.0274 5.59259 17.3339 6.89697 17.3339 8.35884C17.3339 9.82072 17.0274 11.117 16.4142 12.2478C15.801 13.3785 14.8606 14.2669 13.5928 14.913C12.3251 15.5511 10.7052 15.8701 8.73309 15.8701H1.77286V13.1564H8.63366C9.99256 13.1564 11.0863 12.9625 11.9149 12.5749C12.7518 12.1872 13.3567 11.638 13.7295 10.9272C14.1107 10.2084 14.3013 9.35227 14.3013 8.35884C14.3013 7.36541 14.1107 6.49717 13.7295 5.75412C13.3484 5.01107 12.7394 4.43763 11.9025 4.03379C11.0656 3.62188 9.95941 3.41593 8.58394 3.41593H3.16491V25.5621H0.0825195ZM12.0641 14.4163L18.3283 25.5621H14.7487L8.58394 14.4163H12.0641Z" fill="#FFFEFE"/>
<path d="M36.3907 6.95351C36.2415 5.72585 35.6366 4.77281 34.576 4.09437C33.5154 3.41593 32.2145 3.07671 30.6733 3.07671C29.5464 3.07671 28.5604 3.2544 27.7152 3.60977C26.8784 3.96514 26.2238 4.45378 25.7515 5.07568C25.2874 5.69759 25.0554 6.40429 25.0554 7.1958C25.0554 7.85809 25.217 8.42749 25.5402 8.90402C25.8716 9.37246 26.2942 9.76418 26.8079 10.0792C27.3217 10.3861 27.8602 10.6405 28.4237 10.8424C28.9871 11.0363 29.505 11.1937 29.9773 11.3149L32.5625 11.9933C33.2254 12.1629 33.9629 12.3972 34.7749 12.696C35.5952 12.9948 36.3782 13.4027 37.124 13.9196C37.878 14.4284 38.4995 15.0827 38.9883 15.8822C39.4772 16.6818 39.7216 17.6631 39.7216 18.8262C39.7216 20.1669 39.3612 21.3784 38.6403 22.4607C37.9277 23.543 36.8837 24.4031 35.5082 25.0412C34.141 25.6792 32.4797 25.9983 30.5242 25.9983C28.7013 25.9983 27.1228 25.7115 25.7888 25.1381C24.463 24.5647 23.419 23.7651 22.6567 22.7393C21.9026 21.7136 21.4759 20.5223 21.3765 19.1654H24.5583C24.6411 20.1023 24.9643 20.8777 25.5277 21.4915C26.0995 22.0972 26.8204 22.5495 27.6904 22.8484C28.5687 23.1391 29.5133 23.2845 30.5242 23.2845C31.7008 23.2845 32.7573 23.0987 33.6936 22.7272C34.6299 22.3476 35.3715 21.8226 35.9184 21.1523C36.4652 20.4738 36.7387 19.6823 36.7387 18.7777C36.7387 17.9539 36.5025 17.2835 36.0302 16.7666C35.5579 16.2497 34.9365 15.8297 34.1659 15.5067C33.3953 15.1836 32.5625 14.9009 31.6677 14.6586L28.5356 13.7864C26.5469 13.2291 24.9726 12.4335 23.8125 11.3997C22.6525 10.3659 22.0725 9.01305 22.0725 7.34118C22.0725 5.952 22.4578 4.7405 23.2284 3.70669C24.0073 2.6648 25.0513 1.85714 26.3605 1.28369C27.678 0.702174 29.1487 0.411414 30.7728 0.411414C32.4134 0.411414 33.8717 0.698136 35.1478 1.27158C36.4238 1.83694 37.4347 2.6123 38.1804 3.59765C38.9345 4.58301 39.3322 5.70162 39.3736 6.95351H36.3907Z" fill="#FFFEFE"/>
<path d="M62.7867 25.9013C61.1461 25.9013 59.6836 25.6267 58.3993 25.0775C57.1232 24.5283 56.1082 23.7651 55.3542 22.7878C54.6084 21.8024 54.2024 20.6596 54.1361 19.3592H57.2682C57.3345 20.1588 57.6163 20.8494 58.1134 21.4309C58.6106 22.0044 59.261 22.4486 60.0648 22.7636C60.8685 23.0785 61.7593 23.236 62.737 23.236C63.8307 23.236 64.8002 23.0503 65.6454 22.6788C66.4905 22.3072 67.1534 21.7903 67.634 21.128C68.1146 20.4657 68.3549 19.6985 68.3549 18.8262C68.3549 17.9135 68.1229 17.1099 67.6589 16.4153C67.1949 15.7126 66.5154 15.1634 65.6205 14.7677C64.7256 14.3719 63.6319 14.174 62.3393 14.174H60.3009V11.5087H62.3393C63.3502 11.5087 64.2367 11.3311 64.9991 10.9757C65.7697 10.6203 66.3704 10.1196 66.8013 9.47342C67.2404 8.82729 67.46 8.06808 67.46 7.1958C67.46 6.35583 67.2694 5.6249 66.8883 5.00299C66.5071 4.38109 65.9685 3.89649 65.2725 3.5492C64.5848 3.2019 63.7727 3.02825 62.8364 3.02825C61.9581 3.02825 61.1295 3.18575 60.3506 3.50074C59.58 3.80765 58.9503 4.2559 58.4614 4.8455C57.9726 5.42702 57.7074 6.12969 57.666 6.95351H54.683C54.7327 5.65316 55.1346 4.51436 55.8886 3.53708C56.6427 2.55173 57.6287 1.78445 58.8467 1.23523C60.0731 0.68602 61.4195 0.411414 62.8861 0.411414C64.4605 0.411414 65.8111 0.722365 66.938 1.34427C68.0649 1.95809 68.9308 2.7698 69.5356 3.77938C70.1405 4.78896 70.443 5.87931 70.443 7.05043C70.443 8.44769 70.0659 9.63899 69.3119 10.6243C68.5662 11.6097 67.5511 12.2922 66.2668 12.6718V12.8656C67.8743 13.1241 69.1296 13.7904 70.0328 14.8646C70.936 15.9307 71.3876 17.2512 71.3876 18.8262C71.3876 20.175 71.0105 21.3865 70.2565 22.4607C69.5108 23.5268 68.4916 24.3668 67.199 24.9806C65.9064 25.5944 64.4356 25.9013 62.7867 25.9013Z" fill="#FFFEFE"/>
<path d="M75.8744 20.4738V18.0024L87.0605 0.750634H88.9V4.57897H87.6571L79.2054 17.6147V17.8085H94.2693V20.4738H75.8744ZM87.856 25.5621V19.7227V18.5718V0.750634H90.7892V25.5621H87.856Z" fill="#FFFEFE"/>
<path d="M107.031 0.411414C108.075 0.419491 109.119 0.613331 110.163 0.992933C111.207 1.37254 112.16 2.00252 113.022 2.88287C113.883 3.75515 114.575 4.94646 115.097 6.45679C115.619 7.96713 115.88 9.8611 115.88 12.1387C115.88 14.3436 115.665 16.3022 115.234 18.0145C114.811 19.7187 114.198 21.1563 113.394 22.3274C112.599 23.4985 111.629 24.387 110.486 24.9927C109.351 25.5985 108.067 25.9013 106.633 25.9013C105.208 25.9013 103.936 25.6267 102.817 25.0775C101.707 24.5202 100.796 23.7489 100.083 22.7636C99.3787 21.7701 98.9271 20.6192 98.7282 19.3108H101.761C102.034 20.4496 102.577 21.3905 103.389 22.1336C104.209 22.8686 105.291 23.236 106.633 23.236C108.597 23.236 110.146 22.4001 111.281 20.7282C112.425 19.0564 112.997 16.694 112.997 13.641H112.798C112.334 14.3194 111.783 14.905 111.145 15.3976C110.507 15.8903 109.798 16.2699 109.019 16.5365C108.241 16.803 107.412 16.9363 106.534 16.9363C105.075 16.9363 103.737 16.5849 102.519 15.8822C101.309 15.1715 100.34 14.1983 99.6107 12.9625C98.8898 11.7187 98.5293 10.2972 98.5293 8.69806C98.5293 7.17965 98.8773 5.79047 99.5734 4.53051C100.278 3.26247 101.264 2.25289 102.531 1.50176C103.808 0.750634 105.307 0.387185 107.031 0.411414ZM107.031 3.07671C105.987 3.07671 105.046 3.33113 104.209 3.83996C103.381 4.34071 102.722 5.01915 102.233 5.87527C101.753 6.72332 101.512 7.66425 101.512 8.69806C101.512 9.73188 101.744 10.6728 102.208 11.5209C102.681 12.3608 103.323 13.0312 104.135 13.5319C104.955 14.0246 105.887 14.271 106.931 14.271C107.718 14.271 108.452 14.1215 109.131 13.8227C109.811 13.5158 110.403 13.0998 110.909 12.5749C111.422 12.0418 111.824 11.4401 112.114 10.7697C112.404 10.0913 112.549 9.38458 112.549 8.6496C112.549 7.6804 112.309 6.77178 111.828 5.92373C111.356 5.07568 110.701 4.38917 109.865 3.86418C109.036 3.3392 108.091 3.07671 107.031 3.07671Z" fill="#FFFEFE"/>
</svg>
