<svg width="118" height="27" viewBox="0 0 118 27" fill="none" xmlns="http://www.w3.org/2000/svg">
<path d="M0.562073 26.5253V0.807621H9.25185C11.261 0.807621 12.9103 1.15086 14.1995 1.83733C15.4887 2.51544 16.4431 3.44888 17.0626 4.63766C17.6821 5.82643 17.9919 7.17845 17.9919 8.69372C17.9919 10.209 17.6821 11.5526 17.0626 12.7247C16.4431 13.8967 15.4929 14.8176 14.2121 15.4873C12.9312 16.1487 11.2945 16.4794 9.30208 16.4794H2.26989V13.6665H9.20162C10.5746 13.6665 11.6796 13.4656 12.5168 13.0637C13.3623 12.6619 13.9735 12.0926 14.3502 11.3559C14.7353 10.6108 14.9278 9.72343 14.9278 8.69372C14.9278 7.66401 14.7353 6.76405 14.3502 5.99386C13.9651 5.22367 13.3498 4.62928 12.5042 4.2107C11.6587 3.78374 10.5411 3.57027 9.15139 3.57027H3.67633V26.5253H0.562073ZM12.6675 14.9725L18.9965 26.5253H15.3799L9.15139 14.9725H12.6675Z" fill="#FFFEFE"/>
<path d="M37.2456 7.23705C37.0949 5.96456 36.4838 4.97671 35.4122 4.27349C34.3407 3.57027 33.0263 3.21866 31.4692 3.21866C30.3306 3.21866 29.3344 3.40283 28.4805 3.77119C27.635 4.13954 26.9736 4.64603 26.4964 5.29064C26.0276 5.93526 25.7932 6.66778 25.7932 7.4882C25.7932 8.17468 25.9564 8.76488 26.2829 9.25881C26.6178 9.74436 27.0448 10.1504 27.5638 10.4769C28.0828 10.795 28.627 11.0587 29.1963 11.268C29.7655 11.4689 30.2888 11.6322 30.766 11.7577L33.3779 12.461C34.0476 12.6368 34.7927 12.8795 35.6131 13.1893C36.4419 13.4991 37.2331 13.9218 37.9865 14.4576C38.7483 14.985 39.3762 15.6631 39.8701 16.4919C40.3641 17.3207 40.611 18.3379 40.611 19.5434C40.611 20.9331 40.2469 22.1888 39.5185 23.3106C38.7986 24.4324 37.7437 25.324 36.354 25.9854C34.9727 26.6467 33.2942 26.9774 31.3185 26.9774C29.4767 26.9774 27.8819 26.6802 26.5341 26.0858C25.1946 25.4914 24.1398 24.6627 23.3696 23.5995C22.6078 22.5363 22.1766 21.3014 22.0762 19.895H25.2909C25.3746 20.8661 25.7011 21.6698 26.2704 22.306C26.848 22.9339 27.5764 23.4027 28.4554 23.7125C29.3428 24.0139 30.2971 24.1645 31.3185 24.1645C32.5073 24.1645 33.5746 23.972 34.5206 23.5869C35.4666 23.1934 36.2159 22.6493 36.7684 21.9544C37.321 21.2512 37.5972 20.4308 37.5972 19.4932C37.5972 18.6392 37.3586 17.9444 36.8815 17.4086C36.4043 16.8728 35.7764 16.4375 34.9978 16.1026C34.2193 15.7678 33.3779 15.4748 32.4738 15.2236L29.3093 14.3195C27.3001 13.7418 25.7095 12.9172 24.5374 11.8457C23.3654 10.7741 22.7794 9.37183 22.7794 7.63889C22.7794 6.19897 23.1687 4.94322 23.9472 3.87165C24.7342 2.7917 25.789 1.95454 27.1117 1.36015C28.4428 0.757391 29.9288 0.456011 31.5696 0.456011C33.2272 0.456011 34.7006 0.753205 35.9899 1.34759C37.2791 1.93361 38.3005 2.73729 39.0539 3.75863C39.8157 4.77997 40.2176 5.93945 40.2594 7.23705H37.2456Z" fill="#FFFEFE"/>
<path d="M63.9146 26.877C62.257 26.877 60.7794 26.5923 59.4818 26.0231C58.1926 25.4538 57.167 24.6627 56.4052 23.6497C55.6518 22.6283 55.2415 21.4438 55.1746 20.0959H58.3391C58.406 20.9247 58.6907 21.6405 59.193 22.2432C59.6953 22.8376 60.3524 23.2981 61.1645 23.6246C61.9765 23.9511 62.8765 24.1143 63.8643 24.1143C64.9694 24.1143 65.9489 23.9218 66.8028 23.5367C67.6567 23.1516 68.3264 22.6158 68.812 21.9293C69.2976 21.2428 69.5403 20.4475 69.5403 19.5434C69.5403 18.5974 69.3059 17.7644 68.8371 17.0444C68.3683 16.3161 67.6818 15.7468 66.7777 15.3366C65.8735 14.9264 64.7685 14.7213 63.4625 14.7213H61.4031V11.9587H63.4625C64.4839 11.9587 65.3796 11.7745 66.1498 11.4061C66.9284 11.0378 67.5353 10.5187 67.9706 9.84901C68.4143 9.17928 68.6362 8.39234 68.6362 7.4882C68.6362 6.61755 68.4436 5.85992 68.0585 5.2153C67.6734 4.57068 67.1293 4.06838 66.4261 3.7084C65.7312 3.34842 64.9108 3.16843 63.9648 3.16843C63.0774 3.16843 62.2402 3.33168 61.4533 3.65817C60.6747 3.97629 60.0385 4.44092 59.5446 5.05205C59.0506 5.65481 58.7828 6.38314 58.7409 7.23705H55.7271C55.7773 5.88922 56.1834 4.70881 56.9452 3.69584C57.707 2.6745 58.7032 1.87919 59.9339 1.30992C61.1729 0.740647 62.5333 0.456011 64.015 0.456011C65.6057 0.456011 66.9702 0.77832 68.1088 1.42294C69.2473 2.05918 70.1222 2.90054 70.7333 3.94699C71.3444 4.99345 71.65 6.12362 71.65 7.33751C71.65 8.78581 71.2691 10.0206 70.5073 11.042C69.7538 12.0633 68.7283 12.7707 67.4307 13.1642V13.3651C69.0548 13.633 70.3231 14.3237 71.2356 15.4371C72.1481 16.5421 72.6044 17.9109 72.6044 19.5434C72.6044 20.9415 72.2234 22.1972 71.4616 23.3106C70.7082 24.4157 69.6785 25.2863 68.3725 25.9226C67.0665 26.5588 65.5805 26.877 63.9146 26.877Z" fill="#FFFEFE"/>
<path d="M77.1376 21.2512V18.6895L88.4393 0.807621H90.2978V4.77579H89.0421L80.503 18.2876V18.4886H95.7227V21.2512H77.1376ZM89.243 26.5253V20.4726V19.2797V0.807621H92.2066V26.5253H89.243Z" fill="#FFFEFE"/>
<path d="M108.616 0.456011C109.671 0.464383 110.726 0.665303 111.781 1.05877C112.835 1.45224 113.798 2.10523 114.669 3.01774C115.539 3.92188 116.238 5.1567 116.766 6.7222C117.293 8.2877 117.557 10.2508 117.557 12.6117C117.557 14.8971 117.339 16.9272 116.904 18.702C116.477 20.4685 115.858 21.9586 115.046 23.1725C114.242 24.3864 113.262 25.3073 112.107 25.9351C110.96 26.563 109.663 26.877 108.214 26.877C106.774 26.877 105.489 26.5923 104.359 26.0231C103.237 25.4454 102.316 24.6459 101.596 23.6246C100.885 22.5949 100.429 21.4019 100.228 20.0457H103.292C103.568 21.2261 104.116 22.2014 104.937 22.9716C105.766 23.7334 106.858 24.1143 108.214 24.1143C110.198 24.1143 111.764 23.2478 112.911 21.5149C114.066 19.782 114.644 17.3333 114.644 14.1688H114.443C113.974 14.872 113.417 15.4789 112.773 15.9896C112.128 16.5003 111.412 16.8938 110.625 17.17C109.838 17.4463 109.001 17.5844 108.114 17.5844C106.64 17.5844 105.288 17.2203 104.058 16.4919C102.835 15.7552 101.856 14.7464 101.119 13.4656C100.391 12.1763 100.027 10.7029 100.027 9.04533C100.027 7.47146 100.378 6.03153 101.082 4.72556C101.793 3.41121 102.789 2.36475 104.07 1.58619C105.36 0.807621 106.875 0.430897 108.616 0.456011ZM108.616 3.21866C107.561 3.21866 106.611 3.48237 105.766 4.00978C104.928 4.52882 104.263 5.23204 103.769 6.11944C103.283 6.99846 103.041 7.97376 103.041 9.04533C103.041 10.1169 103.275 11.0922 103.744 11.9712C104.221 12.8419 104.87 13.5367 105.69 14.0558C106.519 14.5664 107.461 14.8218 108.516 14.8218C109.311 14.8218 110.052 14.6669 110.738 14.3571C111.425 14.039 112.023 13.6079 112.534 13.0637C113.053 12.5112 113.459 11.8875 113.752 11.1927C114.045 10.4894 114.192 9.75692 114.192 8.9951C114.192 7.9905 113.949 7.04869 113.463 6.16967C112.986 5.29064 112.325 4.57905 111.479 4.03489C110.642 3.49074 109.688 3.21866 108.616 3.21866Z" fill="#FFFEFE"/>
</svg>
