<svg width="40" height="40" viewBox="0 0 40 40" fill="none" xmlns="http://www.w3.org/2000/svg">
<path d="M18 29.6126H22V21.8147H30V17.9157H22V10.1179H18V17.9157H10V21.8147H18V29.6126ZM20 39.36C17.2333 39.36 14.6333 38.8479 12.2 37.8238C9.76667 36.8009 7.65 35.4123 5.85 33.6577C4.05 31.9032 2.62533 29.84 1.576 27.4682C0.525334 25.0963 0 22.562 0 19.8652C0 17.1684 0.525334 14.6341 1.576 12.2623C2.62533 9.89041 4.05 7.82722 5.85 6.07269C7.65 4.31817 9.76667 2.92884 12.2 1.90472C14.6333 0.881895 17.2333 0.370483 20 0.370483C22.7667 0.370483 25.3667 0.881895 27.8 1.90472C30.2333 2.92884 32.35 4.31817 34.15 6.07269C35.95 7.82722 37.3747 9.89041 38.424 12.2623C39.4747 14.6341 40 17.1684 40 19.8652C40 22.562 39.4747 25.0963 38.424 27.4682C37.3747 29.84 35.95 31.9032 34.15 33.6577C32.35 35.4123 30.2333 36.8009 27.8 37.8238C25.3667 38.8479 22.7667 39.36 20 39.36ZM20 35.461C24.4667 35.461 28.25 33.9502 31.35 30.9285C34.45 27.9068 36 24.219 36 19.8652C36 15.5114 34.45 11.8236 31.35 8.80196C28.25 5.78027 24.4667 4.26943 20 4.26943C15.5333 4.26943 11.75 5.78027 8.65 8.80196C5.55 11.8236 4 15.5114 4 19.8652C4 24.219 5.55 27.9068 8.65 30.9285C11.75 33.9502 15.5333 35.461 20 35.461Z" fill="#FAFAFA"/>
</svg>
