<svg width="40" height="41" viewBox="0 0 40 41" fill="none" xmlns="http://www.w3.org/2000/svg">
<path d="M18 30.1587H22V22.1164H30V18.0952H22V10.0529H18V18.0952H10V22.1164H18V30.1587ZM20 40.2116C17.2333 40.2116 14.6333 39.6835 12.2 38.6273C9.76667 37.5724 7.65 36.1402 5.85 34.3307C4.05 32.5212 2.62533 30.3933 1.576 27.9471C0.525333 25.5009 0 22.8871 0 20.1058C0 17.3245 0.525333 14.7108 1.576 12.2646C2.62533 9.81834 4.05 7.69048 5.85 5.88095C7.65 4.07143 9.76667 2.63855 12.2 1.58233C14.6333 0.527443 17.2333 0 20 0C22.7667 0 25.3667 0.527443 27.8 1.58233C30.2333 2.63855 32.35 4.07143 34.15 5.88095C35.95 7.69048 37.3747 9.81834 38.424 12.2646C39.4747 14.7108 40 17.3245 40 20.1058C40 22.8871 39.4747 25.5009 38.424 27.9471C37.3747 30.3933 35.95 32.5212 34.15 34.3307C32.35 36.1402 30.2333 37.5724 27.8 38.6273C25.3667 39.6835 22.7667 40.2116 20 40.2116ZM20 36.1905C24.4667 36.1905 28.25 34.6323 31.35 31.5159C34.45 28.3995 36 24.5961 36 20.1058C36 15.6155 34.45 11.8122 31.35 8.69577C28.25 5.57936 24.4667 4.02116 20 4.02116C15.5333 4.02116 11.75 5.57936 8.65 8.69577C5.55 11.8122 4 15.6155 4 20.1058C4 24.5961 5.55 28.3995 8.65 31.5159C11.75 34.6323 15.5333 36.1905 20 36.1905Z" fill="#FAFAFA"/>
</svg>
