<svg width="42" height="41" viewBox="0 0 42 41" fill="none" xmlns="http://www.w3.org/2000/svg">
<path d="M19.0194 30.5048H23.0607V22.422H31.1434V18.3807H23.0607V10.298H19.0194V18.3807H10.9366V22.422H19.0194V30.5048ZM21.04 40.6082C18.2448 40.6082 15.6179 40.0774 13.1594 39.0159C10.7009 37.9557 8.56235 36.5163 6.74374 34.6977C4.92513 32.8791 3.48573 30.7405 2.42555 28.282C1.36402 25.8235 0.833252 23.1966 0.833252 20.4014C0.833252 17.6061 1.36402 14.9792 2.42555 12.5207C3.48573 10.0622 4.92513 7.92368 6.74374 6.10507C8.56235 4.28645 10.7009 2.84638 13.1594 1.78485C15.6179 0.724671 18.2448 0.19458 21.04 0.19458C23.8353 0.19458 26.4622 0.724671 28.9207 1.78485C31.3792 2.84638 33.5177 4.28645 35.3363 6.10507C37.1549 7.92368 38.5943 10.0622 39.6545 12.5207C40.7161 14.9792 41.2468 17.6061 41.2468 20.4014C41.2468 23.1966 40.7161 25.8235 39.6545 28.282C38.5943 30.7405 37.1549 32.8791 35.3363 34.6977C33.5177 36.5163 31.3792 37.9557 28.9207 39.0159C26.4622 40.0774 23.8353 40.6082 21.04 40.6082ZM21.04 36.5668C25.5529 36.5668 29.3753 35.0008 32.5074 31.8687C35.6394 28.7367 37.2055 24.9142 37.2055 20.4014C37.2055 15.8885 35.6394 12.0661 32.5074 8.93401C29.3753 5.80196 25.5529 4.23594 21.04 4.23594C16.5272 4.23594 12.7047 5.80196 9.57269 8.93401C6.44063 12.0661 4.87461 15.8885 4.87461 20.4014C4.87461 24.9142 6.44063 28.7367 9.57269 31.8687C12.7047 35.0008 16.5272 36.5668 21.04 36.5668Z" fill="#FAFAFA"/>
</svg>
