<svg width="36" height="35" viewBox="0 0 36 35" fill="none" xmlns="http://www.w3.org/2000/svg">
<path d="M7.24 15.4308C10.12 20.855 14.76 25.2825 20.42 28.0617L24.82 23.845C25.36 23.3275 26.16 23.155 26.86 23.385C29.1 24.0942 31.52 24.4775 34 24.4775C35.1 24.4775 36 25.34 36 26.3942V33.0833C36 34.1375 35.1 35 34 35C15.22 35 0 20.4142 0 2.41667C0 1.3625 0.9 0.5 2 0.5H9C10.1 0.5 11 1.3625 11 2.41667C11 4.8125 11.4 7.1125 12.14 9.25917C12.36 9.93 12.2 10.6775 11.64 11.2142L7.24 15.4308Z" fill="#FFFCFC"/>
</svg>
