<svg width="45" height="45" viewBox="0 0 45 45" fill="none" xmlns="http://www.w3.org/2000/svg">
<path d="M20.25 33.75H24.75V24.75H33.75V20.25H24.75V11.25H20.25V20.25H11.25V24.75H20.25V33.75ZM22.5 45C19.3875 45 16.4625 44.409 13.725 43.227C10.9875 42.0465 8.60625 40.4438 6.58125 38.4188C4.55625 36.3938 2.9535 34.0125 1.773 31.275C0.591 28.5375 0 25.6125 0 22.5C0 19.3875 0.591 16.4625 1.773 13.725C2.9535 10.9875 4.55625 8.60625 6.58125 6.58125C8.60625 4.55625 10.9875 2.95275 13.725 1.77075C16.4625 0.59025 19.3875 0 22.5 0C25.6125 0 28.5375 0.59025 31.275 1.77075C34.0125 2.95275 36.3938 4.55625 38.4188 6.58125C40.4438 8.60625 42.0465 10.9875 43.227 13.725C44.409 16.4625 45 19.3875 45 22.5C45 25.6125 44.409 28.5375 43.227 31.275C42.0465 34.0125 40.4438 36.3938 38.4188 38.4188C36.3938 40.4438 34.0125 42.0465 31.275 43.227C28.5375 44.409 25.6125 45 22.5 45ZM22.5 40.5C27.525 40.5 31.7812 38.7562 35.2687 35.2687C38.7562 31.7812 40.5 27.525 40.5 22.5C40.5 17.475 38.7562 13.2187 35.2687 9.73125C31.7812 6.24375 27.525 4.5 22.5 4.5C17.475 4.5 13.2187 6.24375 9.73125 9.73125C6.24375 13.2187 4.5 17.475 4.5 22.5C4.5 27.525 6.24375 31.7812 9.73125 35.2687C13.2187 38.7562 17.475 40.5 22.5 40.5Z" fill="#FAFAFA"/>
</svg>
