<svg width="40" height="41" viewBox="0 0 40 41" fill="none" xmlns="http://www.w3.org/2000/svg">
<path d="M18 30.3126H22V22.4735H30V18.5539H22V10.7148H18V18.5539H10V22.4735H18V30.3126ZM20 40.1116C17.2333 40.1116 14.6333 39.5968 12.2 38.5673C9.76667 37.539 7.65 36.143 5.85 34.3792C4.05 32.6154 2.62533 30.5413 1.576 28.1569C0.525334 25.7725 0 23.2247 0 20.5137C0 17.8027 0.525334 15.2549 1.576 12.8705C2.62533 10.4861 4.05 8.41202 5.85 6.64821C7.65 4.8844 9.76667 3.48773 12.2 2.45818C14.6333 1.42995 17.2333 0.915833 20 0.915833C22.7667 0.915833 25.3667 1.42995 27.8 2.45818C30.2333 3.48773 32.35 4.8844 34.15 6.64821C35.95 8.41202 37.3747 10.4861 38.424 12.8705C39.4747 15.2549 40 17.8027 40 20.5137C40 23.2247 39.4747 25.7725 38.424 28.1569C37.3747 30.5413 35.95 32.6154 34.15 34.3792C32.35 36.143 30.2333 37.539 27.8 38.5673C25.3667 39.5968 22.7667 40.1116 20 40.1116ZM20 36.192C24.4667 36.192 28.25 34.6732 31.35 31.6355C34.45 28.5978 36 24.8906 36 20.5137C36 16.1368 34.45 12.4296 31.35 9.39191C28.25 6.35424 24.4667 4.83541 20 4.83541C15.5333 4.83541 11.75 6.35424 8.65 9.39191C5.55 12.4296 4 16.1368 4 20.5137C4 24.8906 5.55 28.5978 8.65 31.6355C11.75 34.6732 15.5333 36.192 20 36.192Z" fill="#FAFAFA"/>
</svg>
