<svg width="36" height="34" viewBox="0 0 36 34" fill="none" xmlns="http://www.w3.org/2000/svg">
<path d="M15.984 24.8894H19.536V18.2522H26.64V14.9336H19.536V8.29645H15.984V14.9336H8.88V18.2522H15.984V24.8894ZM17.76 33.1858C15.3032 33.1858 12.9944 32.75 10.8336 31.8783C8.6728 31.0077 6.7932 29.8258 5.1948 28.3324C3.5964 26.839 2.3313 25.0829 1.39949 23.0641C0.466496 21.0453 0 18.8883 0 16.5929C0 14.2976 0.466496 12.1405 1.39949 10.1217C2.3313 8.10287 3.5964 6.34679 5.1948 4.85343C6.7932 3.36006 8.6728 2.17754 10.8336 1.30586C12.9944 0.435287 15.3032 0 17.76 0C20.2168 0 22.5256 0.435287 24.6864 1.30586C26.8472 2.17754 28.7268 3.36006 30.3252 4.85343C31.9236 6.34679 33.1887 8.10287 34.1205 10.1217C35.0535 12.1405 35.52 14.2976 35.52 16.5929C35.52 18.8883 35.0535 21.0453 34.1205 23.0641C33.1887 25.0829 31.9236 26.839 30.3252 28.3324C28.7268 29.8258 26.8472 31.0077 24.6864 31.8783C22.5256 32.75 20.2168 33.1858 17.76 33.1858ZM17.76 29.8672C21.7264 29.8672 25.086 28.5813 27.8388 26.0094C30.5916 23.4375 31.968 20.2987 31.968 16.5929C31.968 12.8872 30.5916 9.74833 27.8388 7.17643C25.086 4.60453 21.7264 3.31858 17.76 3.31858C13.7936 3.31858 10.434 4.60453 7.6812 7.17643C4.9284 9.74833 3.552 12.8872 3.552 16.5929C3.552 20.2987 4.9284 23.4375 7.6812 26.0094C10.434 28.5813 13.7936 29.8672 17.76 29.8672Z" fill="#FAFAFA"/>
</svg>
