<svg width="46" height="45" viewBox="0 0 46 45" fill="none" xmlns="http://www.w3.org/2000/svg">
<path d="M20.2886 33.75H24.7886V24.75H33.7886V20.25H24.7886V11.25H20.2886V20.25H11.2886V24.75H20.2886V33.75ZM22.5386 45C19.4261 45 16.5011 44.409 13.7636 43.227C11.0261 42.0465 8.64482 40.4438 6.61982 38.4188C4.59482 36.3937 2.99207 34.0125 1.81157 31.275C0.629574 28.5375 0.0385742 25.6125 0.0385742 22.5C0.0385742 19.3875 0.629574 16.4625 1.81157 13.725C2.99207 10.9875 4.59482 8.60625 6.61982 6.58125C8.64482 4.55625 11.0261 2.95275 13.7636 1.77075C16.5011 0.59025 19.4261 0 22.5386 0C25.6511 0 28.5761 0.59025 31.3136 1.77075C34.0511 2.95275 36.4323 4.55625 38.4573 6.58125C40.4823 8.60625 42.0851 10.9875 43.2656 13.725C44.4476 16.4625 45.0386 19.3875 45.0386 22.5C45.0386 25.6125 44.4476 28.5375 43.2656 31.275C42.0851 34.0125 40.4823 36.3937 38.4573 38.4188C36.4323 40.4438 34.0511 42.0465 31.3136 43.227C28.5761 44.409 25.6511 45 22.5386 45ZM22.5386 40.5C27.5636 40.5 31.8198 38.7562 35.3073 35.2687C38.7948 31.7812 40.5386 27.525 40.5386 22.5C40.5386 17.475 38.7948 13.2188 35.3073 9.73125C31.8198 6.24375 27.5636 4.5 22.5386 4.5C17.5136 4.5 13.2573 6.24375 9.76982 9.73125C6.28232 13.2188 4.53857 17.475 4.53857 22.5C4.53857 27.525 6.28232 31.7812 9.76982 35.2687C13.2573 38.7562 17.5136 40.5 22.5386 40.5Z" fill="#FAFAFA"/>
</svg>
