<svg width="48" height="48" viewBox="0 0 48 48" fill="none" xmlns="http://www.w3.org/2000/svg">
<path d="M22.38 31.98C22.82 32.42 23.3704 32.6296 24.0312 32.6088C24.6904 32.5896 25.24 32.36 25.68 31.92C26.12 31.48 26.34 30.92 26.34 30.24C26.34 29.56 26.12 29 25.68 28.56L23.52 26.4H31.26C31.94 26.4 32.5 26.1696 32.94 25.7088C33.38 25.2496 33.6 24.68 33.6 24C33.6 23.32 33.3704 22.7496 32.9112 22.2888C32.4504 21.8296 31.88 21.6 31.2 21.6H23.52L25.74 19.38C26.18 18.94 26.3904 18.3896 26.3712 17.7288C26.3504 17.0696 26.12 16.52 25.68 16.08C25.24 15.64 24.68 15.42 24 15.42C23.32 15.42 22.76 15.64 22.32 16.08L16.08 22.32C15.64 22.76 15.42 23.32 15.42 24C15.42 24.68 15.64 25.24 16.08 25.68L22.38 31.98ZM24 48C20.68 48 17.56 47.3696 14.64 46.1088C11.72 44.8496 9.18 43.14 7.02 40.98C4.86 38.82 3.1504 36.28 1.8912 33.36C0.6304 30.44 0 27.32 0 24C0 20.68 0.6304 17.56 1.8912 14.64C3.1504 11.72 4.86 9.18 7.02 7.02C9.18 4.86 11.72 3.1496 14.64 1.8888C17.56 0.6296 20.68 0 24 0C27.32 0 30.44 0.6296 33.36 1.8888C36.28 3.1496 38.82 4.86 40.98 7.02C43.14 9.18 44.8496 11.72 46.1088 14.64C47.3696 17.56 48 20.68 48 24C48 27.32 47.3696 30.44 46.1088 33.36C44.8496 36.28 43.14 38.82 40.98 40.98C38.82 43.14 36.28 44.8496 33.36 46.1088C30.44 47.3696 27.32 48 24 48Z" fill="#FEFCFC"/>
</svg>
